<?xml version="1.0" encoding="UTF-8"?>
<svg version="1.1" xmlns="http://www.w3.org/2000/svg" width="455" height="455">
<path d="M0 0 C0 0.66 0 1.32 0 2 C0.99 2.33 1.98 2.66 3 3 C3.6875 5.0625 3.6875 5.0625 4 7 C-4.76606315 11.68882447 -12.36771495 11.35189966 -22 10 C-21.525625 10.99 -21.05125 11.98 -20.5625 13 C-17.63829805 19.98170704 -17.51171773 25.49435856 -19.92578125 32.60546875 C-22.84816945 39.11973771 -27.56903685 43.12903431 -34 46 C-37.4375 46.25 -37.4375 46.25 -40 46 C-41 43 -41 43 -39.5625 39.4375 C-37.26096258 33.68895954 -36.94694102 27.91139835 -39.0625 22.0625 C-42.85244824 18.02803897 -47.07038162 16.83820159 -52.4375 16.625 C-57.09675108 16.76910055 -60.75060553 18.14571877 -65 20 C-64.40832031 20.03738281 -63.81664062 20.07476562 -63.20703125 20.11328125 C-54.47638714 20.83964805 -54.47638714 20.83964805 -51 24 C-49.37859406 27.80677916 -48.68255509 29.93429209 -49.875 33.9375 C-50.431875 34.9584375 -50.431875 34.9584375 -51 36 C-51.66 36 -52.32 36 -53 36 C-53 36.66 -53 37.32 -53 38 C-51.906875 37.814375 -50.81375 37.62875 -49.6875 37.4375 C-46 37 -46 37 -43 38 C-43.51390083 41.08340496 -44.01505424 44.05268985 -44.875 47.0625 C-45.34195261 50.13558835 -45.34195261 50.13558835 -43.01171875 52.30078125 C-39.55863729 55.54456667 -35.7497546 58.32259102 -31.9375 61.125 C-31.23044922 61.64964844 -30.52339844 62.17429687 -29.79492188 62.71484375 C-29.10849609 63.22402344 -28.42207031 63.73320312 -27.71484375 64.2578125 C-26.74200439 64.97952637 -26.74200439 64.97952637 -25.74951172 65.71582031 C-24.34848458 66.74420473 -22.92904675 67.74748849 -21.50390625 68.7421875 C-21.00761719 69.15726562 -20.51132812 69.57234375 -20 70 C-20 70.66 -20 71.32 -20 72 C-19.4328125 72.20625 -18.865625 72.4125 -18.28125 72.625 C-15.18809096 74.48936983 -13.47835504 77.05996208 -11.5 80 C-11.10417725 80.58233398 -10.70835449 81.16466797 -10.30053711 81.76464844 C-3.44698429 92.12087605 0.39672573 103.90012022 -1.515625 116.359375 C-5.36049113 134.11120371 -12.45954946 153.69987686 -28.28515625 164.28515625 C-31.46093948 166.30168256 -34.7190326 168.15976829 -38 170 C-39.66964549 170.99501846 -41.33742212 171.99321673 -43 173 C-42.154375 173.9075 -41.30875 174.815 -40.4375 175.75 C-37.98618157 178.38068319 -37.98618157 178.38068319 -38.04296875 180.92578125 C-39.39892514 183.86460918 -41.40269279 185.37007789 -43.875 187.4375 C-46.70175067 189.80686098 -48.74489509 191.52878291 -50.5078125 194.78515625 C-51.00023437 195.51605469 -51.49265625 196.24695313 -52 197 C-54.6875 197.3125 -54.6875 197.3125 -57 197 C-57.12117188 195.80761719 -57.24234375 194.61523438 -57.3671875 193.38671875 C-57.53602673 191.82026592 -57.70532132 190.25386212 -57.875 188.6875 C-57.95363281 187.90181641 -58.03226562 187.11613281 -58.11328125 186.30664062 C-58.19707031 185.54931641 -58.28085938 184.79199219 -58.3671875 184.01171875 C-58.47716064 182.96697388 -58.47716064 182.96697388 -58.58935547 181.90112305 C-58.94706216 179.68233952 -58.94706216 179.68233952 -61 177 C-61.66 177.33 -62.32 177.66 -63 178 C-67.70198308 178.27782532 -72.41557121 178.24526928 -77.125 178.25 C-78.15025787 178.25151062 -78.15025787 178.25151062 -79.19622803 178.25305176 C-89.43622633 178.2428 -99.08023448 177.76080221 -109 175 C-110.00804687 174.73316406 -111.01609375 174.46632813 -112.0546875 174.19140625 C-124.23135895 170.55778413 -136.5658866 164.58163327 -146 156 C-146.68320313 155.38511719 -147.36640625 154.77023437 -148.0703125 154.13671875 C-161.68519847 141.22069575 -168.86677324 123.65291252 -170 105 C-170.0671776 101.89863433 -170.06626514 98.81225292 -170.00390625 95.7109375 C-169.99864872 92.06221012 -170.44576641 88.60251835 -171 85 C-169.515 84.505 -169.515 84.505 -168 84 C-164.87902225 85.56048888 -162.23224755 87.29780559 -160 90 C-160 90.66 -160 91.32 -160 92 C-159.34 92 -158.68 92 -158 92 C-157.89042969 91.38253906 -157.78085938 90.76507813 -157.66796875 90.12890625 C-156.21170781 82.35034173 -154.18155714 75.32801668 -150.625 68.25 C-149.56389754 66.07142034 -149.56389754 66.07142034 -149 64 C-150.11948415 61.35589996 -150.11948415 61.35589996 -152 59 C-153.67993755 52.5952381 -153.67993755 52.5952381 -152.1875 49.09375 C-150.87746196 46.9907942 -149.4583409 45.00297927 -148 43 C-138.97257561 29.88791286 -138.97257561 29.88791286 -134 15 C-131.08264362 15.31538988 -129.42948813 15.60118959 -127.25 17.625 C-125.62780937 20.70716219 -125.3310304 23.55728387 -125 27 C-123.948125 26.773125 -122.89625 26.54625 -121.8125 26.3125 C-118 26 -118 26 -115.1875 27.125 C-112.61643314 29.3287716 -111.78222407 30.71465889 -111 34 C-111.375 36.8125 -111.375 36.8125 -112 39 C-110.906875 39.103125 -109.81375 39.20625 -108.6875 39.3125 C-105 40 -105 40 -103.0625 41.375 C-102 43 -102 43 -102 46 C-102.67804688 46.32871094 -103.35609375 46.65742188 -104.0546875 46.99609375 C-112.28085097 51.20032411 -119.31835265 56.3356573 -125.078125 63.6328125 C-127.63101721 66.77722852 -130.21825047 68.57396528 -134 70 C-136.3320802 70.07646165 -138.66845878 70.09143299 -141 70 C-143.67428959 72.67428959 -144.05430885 75.11591177 -145.0625 78.75 C-145.40410156 79.96171875 -145.74570313 81.1734375 -146.09765625 82.421875 C-150.13362612 98.42598062 -147.50858055 112.71643279 -139.328125 126.8984375 C-135.50493946 133.21175234 -135.50493946 133.21175234 -130 138 C-129.7525 137.21625 -129.505 136.4325 -129.25 135.625 C-127.84610901 132.67682892 -126.99324263 132.0975223 -124 131 C-124 130.34 -124 129.68 -124 129 C-118.10261508 126.70657253 -113.33393082 125.65451286 -107 126 C-107.45822468 129.46941546 -107.89131683 132.67395049 -109 136 C-109.73974791 142.54148511 -109.59554386 147.89057126 -105.57421875 153.2890625 C-98.35600799 161.13416501 -88.02679602 162.08248239 -78 164 C-78.33 163.67 -78.66 163.34 -79 163 C-80.28617019 161.68145482 -81.55395505 160.34493857 -82.8125 159 C-83.49957031 158.278125 -84.18664062 157.55625 -84.89453125 156.8125 C-90.6540098 149.11894795 -91.65971173 142.09456661 -91.5625 132.625 C-91.58634766 131.56539062 -91.61019531 130.50578125 -91.63476562 129.4140625 C-91.62211524 122.53225411 -90.39189483 117.56535738 -87.17163086 111.47509766 C-85.93939245 108.87196512 -85.42469922 106.5881721 -85 103.75 C-84.15738726 98.88758335 -82.59247998 95.43960849 -79 92 C-71.25496853 87.29223577 -61.64066525 88.50228469 -53 90 C-50.97975201 90.6025301 -48.96766531 91.24320565 -47 92 C-47 92.66 -47 93.32 -47 94 C-48.4609375 95.2890625 -48.4609375 95.2890625 -50.375 96.625 C-51.00148438 97.07101563 -51.62796875 97.51703125 -52.2734375 97.9765625 C-54 99 -54 99 -56 99 C-57.8591451 102.13730736 -58.36368085 104.3631915 -58 108 C-57.07451225 110.69933926 -56.57626463 111.71186768 -54 113 C-51.50983207 114.24508396 -51.01313282 115.46716796 -50 118 C-49.34 118 -48.68 118 -48 118 C-42.28860071 127.84724016 -39.85259124 138.75268085 -42 150 C-42.185625 151.03125 -42.37125 152.0625 -42.5625 153.125 C-42.706875 153.74375 -42.85125 154.3625 -43 155 C-35.78119514 150.38746494 -29.7597817 144.27934511 -27 136 C-26.37927678 129.38691026 -26.71656784 122.89054274 -30 117 C-33.93104562 112.45283023 -38.04896988 109.33898178 -44 108 C-43.6875 106.125 -43.6875 106.125 -43 104 C-39.79872662 101.86581774 -38.36780108 101.62525461 -34.625 101.3125 C-33.68914062 101.22613281 -32.75328125 101.13976562 -31.7890625 101.05078125 C-29.02421231 101.00044084 -26.67995185 101.35193892 -24 102 C-29.27857598 91.44284803 -37.03416952 85.18896391 -48.09765625 81.25390625 C-60.21258909 77.76152999 -72.88433993 81.21371718 -83.9375 86.625 C-91.27826511 90.95725482 -96.88722029 97.74170002 -99.48046875 105.90625 C-100.47393134 109.90997895 -101.29223318 113.93658576 -102 118 C-104.35159054 117.60890392 -105.70295842 117.28343051 -107.44921875 115.6171875 C-110.48482416 111.34627263 -111.67904957 108.2421903 -112 103 C-112.70125 103.7425 -113.4025 104.485 -114.125 105.25 C-117 108 -117 108 -120.125 110.0625 C-123.80987255 112.54578368 -125.59670744 114.4558424 -126.73046875 118.796875 C-126.88128906 119.77140625 -127.03210938 120.7459375 -127.1875 121.75 C-127.34605469 122.73484375 -127.50460938 123.7196875 -127.66796875 124.734375 C-127.77753906 125.48203125 -127.88710937 126.2296875 -128 127 C-130.32421875 126.80078125 -130.32421875 126.80078125 -133 126 C-139.37687475 117.85964383 -139.17616453 106.11882467 -138.34277344 96.31591797 C-137.19146127 88.53718061 -132.92965848 82.01740333 -127 77 C-126.071875 76.071875 -125.14375 75.14375 -124.1875 74.1875 C-123.465625 73.465625 -122.74375 72.74375 -122 72 C-122.515625 71.5875 -123.03125 71.175 -123.5625 70.75 C-125 69 -125 69 -124.953125 67.11328125 C-122.75207979 62.23309494 -115.69304024 60.10957509 -111 58 C-102.04487054 54.66948371 -93.41909821 54.65257425 -84 55 C-84.42152344 54.31292969 -84.84304687 53.62585938 -85.27734375 52.91796875 C-85.82519531 52.01691406 -86.37304688 51.11585938 -86.9375 50.1875 C-87.75541016 48.84751953 -87.75541016 48.84751953 -88.58984375 47.48046875 C-93.05968198 39.61801092 -92.62330296 27.17536233 -90.37158203 18.609375 C-86.11801604 6.97075174 -78.17462719 -2.445105 -67.3125 -8.4375 C-45.48781427 -18.37829234 -19.03753123 -14.26350417 0 0 Z M-73 36 C-74.35358177 40.0607453 -74.82031176 43.75468952 -73.31640625 47.87109375 C-71.05414345 52.23604064 -68.38054389 54.61926962 -64 57 C-63.34 57 -62.68 57 -62 57 C-62.04125 55.80375 -62.0825 54.6075 -62.125 53.375 C-62.10698989 48.27813864 -61.35378181 44.51305025 -57.875 40.625 C-57.25625 40.08875 -56.6375 39.5525 -56 39 C-57.32 39 -58.64 39 -60 39 C-60.66 37.02 -61.32 35.04 -62 33 C-68.15596492 32.61704657 -68.15596492 32.61704657 -73 36 Z M-63 172 C-62.67 172.99 -62.34 173.98 -62 175 C-62 174.01 -62 173.02 -62 172 C-62.33 172 -62.66 172 -63 172 Z " fill="#F0F0F0" transform="translate(288,129)"/>
<path d="M0 0 C3.16842693 0.25689948 4.60962957 0.58270747 6.8125 2.9375 C8.5242094 7.35190847 8.67307677 11.32585579 8 16 C6.16479961 19.80634156 5.02630521 21.4868474 1.25 23.375 C0.13625 23.684375 0.13625 23.684375 -1 24 C-0.21625 24.474375 0.5675 24.94875 1.375 25.4375 C4.55316205 28.53999152 4.80968862 30.46867919 5.53515625 34.7109375 C5.96414948 37.262334 5.96414948 37.262334 7.5625 40.4375 C9.92356384 46.28883213 10.62476826 51.54257819 9.0625 57.6875 C5.79220605 62.93979029 1.66355174 66.66822413 -3.875 69.4375 C-15.47232448 71.52501841 -25.11547028 67.78125948 -36 64 C-36 63.34 -36 62.68 -36 62 C-37.485 61.505 -37.485 61.505 -39 61 C-39.495 58.03 -39.495 58.03 -40 55 C-38.98679687 55.03480469 -37.97359375 55.06960938 -36.9296875 55.10546875 C-35.5781417 55.13362595 -34.22657781 55.16092403 -32.875 55.1875 C-32.20984375 55.21263672 -31.5446875 55.23777344 -30.859375 55.26367188 C-26.12196842 55.33333962 -23.02647249 54.46725985 -19 52 C-16.61775072 49.61775072 -16.67982851 48.9497963 -16.625 45.6875 C-16.69265563 42.18632102 -16.94816717 41.08293252 -18.875 38 C-22.90831439 34.2039394 -26.62178614 34.65802489 -31.97265625 34.734375 C-36.1297814 35.09912921 -38.84043989 36.41992253 -42 39 C-42.83789062 39.66773438 -43.67578125 40.33546875 -44.5390625 41.0234375 C-51.58717366 46.97472444 -55.00044663 51.32621387 -55.87890625 60.73828125 C-56.66881097 75.49166301 -56.00447842 90.39435515 -52.5234375 104.765625 C-51.74667581 109.56531663 -52.17446242 112.76169362 -54.875 116.8125 C-57.96335023 119.99168406 -60.62179728 120.17243399 -64.875 120.25 C-69.07145699 120.20717901 -71.69565554 119.78804063 -75 117 C-77.50062803 113.24905795 -77.51037894 110.34202975 -77 106 C-76.36267337 103.78785981 -75.59010893 101.65442162 -74.80078125 99.4921875 C-70.34331109 85.61967062 -71.09707746 68.44885455 -76.8125 54.9375 C-77.50272545 53.60410992 -78.23285487 52.29066984 -79 51 C-79.4434375 50.23429687 -79.886875 49.46859375 -80.34375 48.6796875 C-84.95386001 41.24956339 -90.14654233 35.803551 -98.7265625 33.34375 C-102.75737726 32.73427973 -105.20467006 33.45613697 -109 35 C-112.72176256 38.4279392 -114.21452227 42.02530768 -115 47 C-114.18292938 50.38437013 -114.18292938 50.38437013 -112 53 C-107.45888165 54.9775838 -103.54108725 55.21775636 -98.625 55.125 C-96.75714844 55.09792969 -96.75714844 55.09792969 -94.8515625 55.0703125 C-93.91054687 55.04710937 -92.96953125 55.02390625 -92 55 C-92.49239155 61.52418805 -92.49239155 61.52418805 -94.74609375 63.63671875 C-97.10685188 65.06462965 -99.15116311 65.79589827 -101.8125 66.5 C-104.96427368 67.37088483 -107.58285022 68.27608695 -110.5625 69.6875 C-116.51016924 71.95842826 -121.68248699 71.77392079 -127.625 69.5 C-133.02444954 66.86658426 -137.31161805 62.3767639 -140 57 C-141.31997001 45.32077165 -138.95040166 34.59175824 -131.796875 25.06640625 C-131.20390625 24.38449219 -130.6109375 23.70257813 -130 23 C-130.763125 22.773125 -131.52625 22.54625 -132.3125 22.3125 C-135.77448129 20.62176495 -136.57905405 19.58975819 -138 16 C-138.23597122 12.65023458 -138.17571279 9.35155877 -138 6 C-134.21838018 6.67305894 -130.70291651 7.72096737 -127.0625 8.9375 C-122.42918307 10.38996677 -118.00296012 11.38842555 -113.1875 12 C-101.99646161 13.4238598 -91.1338411 15.93307945 -81 21 C-81.33 19.35 -81.66 17.7 -82 16 C-74.88442211 15.51758794 -74.88442211 15.51758794 -71.25 17.5 C-65.99220212 23.34199765 -64.0184854 30.53772064 -62 38 C-59.93211836 35.31357311 -58.0975967 32.56718322 -56.3125 29.6875 C-50.57504505 21.10944236 -43.0640811 16.59849276 -34 12 C-33.28585937 11.59523438 -32.57171875 11.19046875 -31.8359375 10.7734375 C-26.95738372 8.07176828 -22.55296212 7.25708158 -17 7 C-16.01 9.97 -16.01 9.97 -15 13 C-14.45730469 12.72285156 -13.91460937 12.44570313 -13.35546875 12.16015625 C-12.28232422 11.61681641 -12.28232422 11.61681641 -11.1875 11.0625 C-10.47980469 10.70285156 -9.77210938 10.34320313 -9.04296875 9.97265625 C-7 9 -7 9 -4 8 C-2.87483915 6.16715557 -2.87483915 6.16715557 -2 4 C-1.33333333 2.66666667 -0.66666667 1.33333333 0 0 Z " fill="#EEEEEE" transform="translate(294,296)"/>
<path d="M0 0 C0.495 0.495 0.495 0.495 1 1 C0.99409606 2.3756185 0.9448571 3.75114371 0.875 5.125 C0.81132819 10.86455912 2.82738535 14.92537409 5.625 19.875 C8.08315947 25.46172607 8.65477881 30.40961112 6.625 36.1875 C5.2212802 41.48126682 7.64839341 44.83761188 10.18237305 49.42675781 C17.68918335 63.34760317 16.91900584 79.72423177 15 95 C17.33698628 85.16186447 17.43477607 75.36365496 17.625 65.3125 C17.66326765 63.62823696 17.70232416 61.94399165 17.7421875 60.25976562 C17.83721445 56.17332448 17.92158561 52.08679229 18 48 C19.89916992 48.34692383 19.89916992 48.34692383 22 49 C31.11715199 62.8412937 30.73695166 85.37844498 27.55908203 101.05371094 C24.55402366 114.39116559 19.31947165 125.60572236 9 135 C8.34 135 7.68 135 7 135 C6.67 135.99 6.34 136.98 6 138 C3.90105085 139.57864626 1.84642717 140.99059869 -0.375 142.375 C-1.00841309 142.77348145 -1.64182617 143.17196289 -2.29443359 143.58251953 C-15.20051612 151.55745852 -27.72151289 155.73141694 -43 155 C-42.39958856 151.47165622 -42.12314151 151.09432115 -39.0625 148.75 C-36 147 -36 147 -34 147 C-34 146.34 -34 145.68 -34 145 C-33.360625 144.896875 -32.72125 144.79375 -32.0625 144.6875 C-31.381875 144.460625 -30.70125 144.23375 -30 144 C-29.67 143.01 -29.34 142.02 -29 141 C-28.34 141 -27.68 141 -27 141 C-26.73574219 140.42765625 -26.47148437 139.8553125 -26.19921875 139.265625 C-24.93448073 136.87621766 -23.45298708 134.89727371 -21.8125 132.75 C-10.59694782 116.91213865 -6.54369231 98.63231534 -9.6875 79.5 C-10.69070131 75.24002922 -12.57726289 71.70956533 -14.87890625 68.0078125 C-16.00116572 65.99791226 -16.55152072 64.24743547 -17 62 C-17.66 62 -18.32 62 -19 62 C-20.17614598 60.5825933 -21.28977903 59.11317222 -22.375 57.625 C-26.55245139 52.19893768 -31.24540428 48.33826952 -36.65625 44.2265625 C-37.81640625 43.12441406 -37.81640625 43.12441406 -39 42 C-39 40.68 -39 39.36 -39 38 C-25.91475232 37.14661428 -15.14673921 43.83401862 -5.37109375 51.87109375 C-1.45920064 55.38341953 2.62555826 59.25111652 5 64 C4.62561394 58.25941374 2.78679721 54.18350873 0.05859375 49.13671875 C-1 47 -1 47 -1 45 C-1.66 45 -2.32 45 -3 45 C-3 44.34 -3 43.68 -3 43 C-3.66 43.2475 -4.32 43.495 -5 43.75 C-9.48593881 44.12382823 -12.50311709 42.63360949 -16 40 C-18.43282645 37.28286995 -20.650884 34.48683454 -22.82421875 31.55859375 C-25.80014498 28.05907548 -28.67962586 26.44012471 -33 25 C-32.45925627 21.21479387 -30.92427254 19.40822445 -28 17 C-27.01 17 -26.02 17 -25 17 C-25.05800781 16.26394531 -25.11601562 15.52789062 -25.17578125 14.76953125 C-25.54135107 6.86277827 -25.54135107 6.86277827 -23 2.8125 C-18.91425464 0.34402884 -16.72774237 0.54247654 -12 1 C-10.515 1.495 -10.515 1.495 -9 2 C-8.38125 1.690625 -7.7625 1.38125 -7.125 1.0625 C-4.5737199 -0.21314005 -2.81787278 -0.22847617 0 0 Z " fill="#EDEDED" transform="translate(298,146)"/>
<path d="M0 0 C2.31809617 -0.01311511 4.63167982 -0.00020818 6.94921875 0.046875 C7.44421875 2.026875 7.44421875 2.026875 7.94921875 4.046875 C7.08296875 4.5625 6.21671875 5.078125 5.32421875 5.609375 C0.21397531 9.06060576 -3.82105122 13.16578325 -5.42578125 19.234375 C-6.15863127 23.0608618 -6.15863127 23.0608618 -6.05078125 27.046875 C-5.85484375 26.51578125 -5.65890625 25.9846875 -5.45703125 25.4375 C-3.31122122 20.36894873 -1.25499371 17.80617055 3.8671875 15.66796875 C8.46424579 14.29661365 11.81878995 14.6202981 16.26171875 16.296875 C19.12805395 18.16332583 19.77458905 18.93690304 20.94921875 22.046875 C21.10011111 26.12815407 20.52693845 29.8914356 18.69921875 33.546875 C16.45752467 35.46832707 14.87487531 35.82745076 11.94921875 36.046875 C10.46421875 35.551875 10.46421875 35.551875 8.94921875 35.046875 C8.45421875 31.581875 8.45421875 31.581875 7.94921875 28.046875 C9.59921875 27.056875 11.24921875 26.066875 12.94921875 25.046875 C10.63921875 25.046875 8.32921875 25.046875 5.94921875 25.046875 C5.86790412 26.48343354 5.80988316 27.9213233 5.76171875 29.359375 C5.72691406 30.15988281 5.69210937 30.96039063 5.65625 31.78515625 C5.76487707 34.10517413 5.76487707 34.10517413 7.2734375 35.77734375 C10.082427 37.9053661 12.77358807 38.19418412 16.1796875 38.36328125 C17.38334961 38.42612305 17.38334961 38.42612305 18.61132812 38.49023438 C19.86139648 38.54920898 19.86139648 38.54920898 21.13671875 38.609375 C21.98169922 38.65255859 22.82667969 38.69574219 23.69726562 38.74023438 C25.78106308 38.84619018 27.86511978 38.9470252 29.94921875 39.046875 C29.57737714 45.47096102 28.51793578 49.63623951 24.94921875 55.046875 C19.32242154 55.34108662 15.06477642 54.33617222 9.76171875 52.546875 C1.19608341 49.85431363 -6.52473734 48.80034343 -15.36328125 51.046875 C-25.26238164 53.53064928 -36.14893755 53.35010104 -45.05078125 48.046875 C-50.19814002 43.7756624 -52.65365992 39.15802738 -54.92578125 32.984375 C-57.05583471 27.53370587 -59.49691143 25.18192825 -64.86328125 22.796875 C-65.58515625 22.549375 -66.30703125 22.301875 -67.05078125 22.046875 C-67.05078125 20.726875 -67.05078125 19.406875 -67.05078125 18.046875 C-66.51710937 17.87671875 -65.9834375 17.7065625 -65.43359375 17.53125 C-61.17038081 16.14459942 -57.04388266 14.63420091 -52.92578125 12.859375 C-48.77166581 11.19387051 -45.57166275 10.35135477 -41.05078125 11.046875 C-37.61328125 12.921875 -37.61328125 12.921875 -35.05078125 15.046875 C-35.05078125 15.706875 -35.05078125 16.366875 -35.05078125 17.046875 C-34.39078125 17.046875 -33.73078125 17.046875 -33.05078125 17.046875 C-32.82390625 16.16 -32.59703125 15.273125 -32.36328125 14.359375 C-29.82256275 7.94708545 -24.95398022 4.91238165 -18.92578125 2.05078125 C-12.79209521 -0.09100858 -6.42682912 0.09874769 0 0 Z " fill="#EDEDED" transform="translate(253.05078125,62.953125)"/>
<path d="M0 0 C6.93131581 -0.49509399 10.9836587 2.0124337 16.1875 6.3125 C20.45300947 10.19468453 22.85925318 13.46655731 23.1875 19.375 C23.0946875 20.674375 23.0946875 20.674375 23 22 C23.99 22.33 24.98 22.66 26 23 C29.70742805 27.49385218 31.69063612 32.13206584 32 38 C30.9350246 43.47701635 27.85201966 48.27941573 25 53 C24.34 53 23.68 53 23 53 C22.896875 53.639375 22.79375 54.27875 22.6875 54.9375 C22.11678137 57.47979208 21.39525138 59.6925365 20.5 62.125 C17.86946554 69.83695712 17.84764292 77.92507469 18 86 C16.02 85.67 14.04 85.34 12 85 C12 84.34 12 83.68 12 83 C10.515 82.505 10.515 82.505 9 82 C4.63684711 76.44689632 1.68656998 70.68698255 -0.25390625 63.9375 C-1.42651176 60.89240924 -3.58189191 59.10809423 -6 57 C-9.92566228 51.11150658 -9.77454484 43.59935903 -8.62109375 36.75 C-7.93118294 33.88170938 -7.08587172 31.19082604 -5.875 28.5 C-4.77429217 25.86005183 -4.77429217 25.86005183 -5.1875 22.3125 C-5.35595485 17.60463035 -3.33147902 14.51305759 -1.11328125 10.4765625 C0.54408399 6.78965176 0.3687554 3.98255836 0 0 Z " fill="#F0F0F0" transform="translate(175,85)"/>
<path d="M0 0 C4.72335372 1.79937285 7.89864792 5.83872577 10.625 10 C10.625 10.66 10.625 11.32 10.625 12 C15.08 11.505 15.08 11.505 19.625 11 C22.19645636 16.14291273 20.30501108 21.85496608 18.625 27 C19.945 27 21.265 27 22.625 27 C23.271592 33.98319361 21.64387694 39.1924398 17.625 45 C16.635 45.33 15.645 45.66 14.625 46 C14.356875 46.61875 14.08875 47.2375 13.8125 47.875 C12.06303791 51.00561636 9.90538401 51.7135749 6.625 53 C3.75 53.1875 3.75 53.1875 1.625 53 C1.645625 54.093125 1.66625 55.18625 1.6875 56.3125 C1.625 60 1.625 60 0.625 63 C-4.125 62.25 -4.125 62.25 -6.375 60 C-6.34212417 57.27130593 -5.81102229 54.7033382 -5.375 52 C-6.25671875 51.81824219 -6.25671875 51.81824219 -7.15625 51.6328125 C-12.06062421 50.23402972 -16.02548135 47.05669097 -18.625 42.6875 C-19.23770187 41.47270582 -19.82028971 40.24234656 -20.375 39 C-20.68566406 38.31164063 -20.99632812 37.62328125 -21.31640625 36.9140625 C-22.86812624 33.17045104 -23.63188539 30.85615859 -22.375 27 C-21.055 27 -19.735 27 -18.375 27 C-18.705 26.34 -19.035 25.68 -19.375 25 C-19.44616382 22.62597499 -19.45909085 20.24999323 -19.4375 17.875 C-19.42847656 16.59367187 -19.41945312 15.31234375 -19.41015625 13.9921875 C-19.39855469 13.00476562 -19.38695312 12.01734375 -19.375 11 C-16.405 11.33 -13.435 11.66 -10.375 12 C-10.04886719 11.38511719 -9.72273437 10.77023438 -9.38671875 10.13671875 C-8.73123047 8.92435547 -8.73123047 8.92435547 -8.0625 7.6875 C-7.63324219 6.88699219 -7.20398438 6.08648437 -6.76171875 5.26171875 C-3.53562176 0 -3.53562176 0 0 0 Z M-0.375 16 C-1.365 17.485 -1.365 17.485 -2.375 19 C-1.055 18.34 0.265 17.68 1.625 17 C0.965 16.67 0.305 16.34 -0.375 16 Z M1.625 18 C2.285 18.66 2.945 19.32 3.625 20 C3.625 19.34 3.625 18.68 3.625 18 C2.965 18 2.305 18 1.625 18 Z M-11.375 28 C-7.375 29 -7.375 29 -7.375 29 Z M7.625 28 C11.625 29 11.625 29 11.625 29 Z " fill="#ECECEC" transform="translate(220.375,12)"/>
<path d="M0 0 C3 2 3 2 3.875 5.375 C4 9 4 9 3.125 11.4375 C0.16481301 13.61410808 -2.24702975 13.43958828 -5.84375 13.43359375 C-8.50049227 12.89935753 -9.40620943 12.17016137 -11 10 C-11.36248449 6.61681143 -11.58433618 4.13215135 -10 1.0625 C-6.83245911 -0.6202561 -3.5086342 -0.54468716 0 0 Z " fill="#D7D7D7" transform="translate(202,59)"/>
<path d="M0 0 C0.928125 0.165 1.85625 0.33 2.8125 0.5 C5.95621353 1.07748388 5.95621353 1.07748388 9 1 C9.66 3.64 10.32 6.28 11 9 C10.34 9 9.68 9 9 9 C7.375 6.5 7.375 6.5 6 4 C5.4225 4.309375 4.845 4.61875 4.25 4.9375 C2.15705816 5.92583364 0.25464725 6.5168613 -2 7 C-1.67 6.21625 -1.34 5.4325 -1 4.625 C0.11866511 2.15667503 0.11866511 2.15667503 0 0 Z " fill="#8C8C8C" transform="translate(216,29)"/>
<path d="M0 0 C1.98 0 3.96 0 6 0 C6 0.33 6 0.66 6 1 C4.35 1 2.7 1 1 1 C1.33 6.28 1.66 11.56 2 17 C1.01 17.33 0.02 17.66 -1 18 C-1.33 19.65 -1.66 21.3 -2 23 C-4 20 -4 20 -3.625 17.8125 C-3.41875 17.214375 -3.2125 16.61625 -3 16 C-1.68 16 -0.36 16 1 16 C0.67 15.34 0.34 14.68 0 14 C-0.07116382 11.62597499 -0.08409085 9.24999323 -0.0625 6.875 C-0.05347656 5.59367187 -0.04445312 4.31234375 -0.03515625 2.9921875 C-0.02355469 2.00476563 -0.01195312 1.01734375 0 0 Z " fill="#787878" transform="translate(201,23)"/>
<path d="M0 0 C0.66 0 1.32 0 2 0 C2.125 6.625 2.125 6.625 1 10 C0.34 10 -0.32 10 -1 10 C-1.66 11.32 -2.32 12.64 -3 14 C-3.66 14 -4.32 14 -5 14 C-5 13.34 -5 12.68 -5 12 C-4.34 12 -3.68 12 -3 12 C-2.01 8.04 -1.02 4.08 0 0 Z " fill="#7E7E7E" transform="translate(291,341)"/>
<path d="M0 0 C0.33 0 0.66 0 1 0 C1.0544452 2.20805524 1.09299283 4.41650554 1.125 6.625 C1.14820313 7.85476562 1.17140625 9.08453125 1.1953125 10.3515625 C1.0030428 13.94316041 0.30258556 16.66661175 -1 20 C-1.66 20 -2.32 20 -3 20 C-2.01 13.4 -1.02 6.8 0 0 Z " fill="#878787" transform="translate(312,233)"/>
<path d="M0 0 C-0.56589844 0.19335938 -1.13179687 0.38671875 -1.71484375 0.5859375 C-2.81505859 0.97652344 -2.81505859 0.97652344 -3.9375 1.375 C-5.03384766 1.75785156 -5.03384766 1.75785156 -6.15234375 2.1484375 C-8.18682116 2.85271413 -8.18682116 2.85271413 -9 5 C-8.34 5.66 -7.68 6.32 -7 7 C-8.65 6.67 -10.3 6.34 -12 6 C-11.6875 4.125 -11.6875 4.125 -11 2 C-7.54930647 -0.30046235 -3.95022851 -1.97511426 0 0 Z " fill="#838383" transform="translate(256,231)"/>
<path d="M0 0 C0.66 0.33 1.32 0.66 2 1 C-1.63 4.63 -5.26 8.26 -9 12 C-9 9 -9 9 -6.75 6.5625 C-5.8425 5.716875 -4.935 4.87125 -4 4 C-3.236875 3.236875 -2.47375 2.47375 -1.6875 1.6875 C-1.130625 1.130625 -0.57375 0.57375 0 0 Z " fill="#949494" transform="translate(165,202)"/>
<path d="M0 0 C0.66 0 1.32 0 2 0 C2.99 3.3 3.98 6.6 5 10 C2 9 2 9 0.8125 7.25 C-0.10819096 4.70039426 -0.14948718 2.69076919 0 0 Z " fill="#A0A0A0" transform="translate(164,343)"/>
<path d="M0 0 C0 0.66 0 1.32 0 2 C-1.45537568 2.83848804 -2.91440373 3.67063934 -4.375 4.5 C-5.59316406 5.19609375 -5.59316406 5.19609375 -6.8359375 5.90625 C-9 7 -9 7 -11 7 C-10 4 -10 4 -8.22265625 2.83203125 C-7.50980469 2.49558594 -6.79695312 2.15914062 -6.0625 1.8125 C-5.35222656 1.46832031 -4.64195312 1.12414062 -3.91015625 0.76953125 C-2 0 -2 0 0 0 Z " fill="#A1A1A1" transform="translate(188,203)"/>
<path d="M0 0 C1.32 0.33 2.64 0.66 4 1 C2.38405168 3.04119788 0.7143618 5.04072937 -1 7 C-1.66 7 -2.32 7 -3 7 C-2 4 -2 4 1 2 C0.67 1.34 0.34 0.68 0 0 Z " fill="#979797" transform="translate(230,167)"/>
</svg>
